<svg xmlns="http://www.w3.org/2000/svg" viewBox="0 0 900 640" role="img" aria-labelledby="title desc">
  <title id="title">Doctor aplicando un tratamiento operativo</title>
  <desc id="desc">Ilustración sobria de un profesional optimizando un sistema con tareas, engranajes y una línea de progreso.</desc>
  <rect width="900" height="640" rx="28" fill="#151920"/>
  <path d="M72 504c112-78 228-44 334-22 112 24 196-12 288-72 54-35 102-43 154-18v178H72z" fill="#20242c"/>
  <rect x="94" y="102" width="374" height="330" rx="18" fill="#292e38" stroke="#3a414d" stroke-width="3"/>
  <path d="M134 154h256M134 210h194M134 266h256M134 322h150" stroke="#3a414d" stroke-width="18" stroke-linecap="round"/>
  <path d="M134 154h104M134 266h168" stroke="#4ee58d" stroke-width="18" stroke-linecap="round"/>
  <circle cx="404" cy="210" r="32" fill="#20242c" stroke="#4ee58d" stroke-width="6"/>
  <path d="M390 210l10 10 18-22" fill="none" stroke="#f7f8f7" stroke-width="6" stroke-linecap="round" stroke-linejoin="round"/>
  <circle cx="398" cy="322" r="32" fill="#20242c" stroke="#f2a65f" stroke-width="6"/>
  <path d="M384 322h28" stroke="#f7f8f7" stroke-width="6" stroke-linecap="round"/>
  <circle cx="620" cy="198" r="54" fill="#f7f8f7"/>
  <path d="M570 190c18-60 92-67 122-13 11 20 12 41 4 62-46 4-88-13-126-49z" fill="#20242c"/>
  <path d="M590 260h74c65 0 118 53 118 118v126H474V376c0-64 52-116 116-116z" fill="#f7f8f7"/>
  <path d="M560 286v218M694 286v218" stroke="#dce5e1" stroke-width="4"/>
  <path d="M608 272l19 44 23-44" fill="none" stroke="#4ee58d" stroke-width="7" stroke-linecap="round" stroke-linejoin="round"/>
  <path d="M492 392c-56-2-104 0-151 16" stroke="#f7f8f7" stroke-width="18" stroke-linecap="round"/>
  <path d="M336 410l-54 18" stroke="#4ee58d" stroke-width="10" stroke-linecap="round"/>
  <path d="M713 382c38-27 72-56 103-88" stroke="#f7f8f7" stroke-width="18" stroke-linecap="round"/>
  <path d="M814 294l22-24" stroke="#4ee58d" stroke-width="10" stroke-linecap="round"/>
  <circle cx="620" cy="414" r="58" fill="#292e38" stroke="#3a414d" stroke-width="4"/>
  <path d="M620 374v20M620 434v20M580 414h20M640 414h20M592 386l14 14M634 428l14 14M648 386l-14 14M606 428l-14 14" stroke="#4ee58d" stroke-width="7" stroke-linecap="round"/>
  <circle cx="620" cy="414" r="18" fill="#f7f8f7"/>
</svg>
