<svg xmlns="http://www.w3.org/2000/svg" viewBox="0 0 900 640" role="img" aria-labelledby="title desc">
  <title id="title">Doctor haciendo un diagnóstico operativo</title>
  <desc id="desc">Ilustración sobria de un profesional revisando un panel de diagnóstico con gráficos y nodos conectados.</desc>
  <rect width="900" height="640" rx="28" fill="#151920"/>
  <path d="M70 492c126-70 198-48 298-38 113 12 203-42 294-74 65-23 116-24 168 8v182H70z" fill="#20242c"/>
  <rect x="94" y="88" width="462" height="332" rx="18" fill="#292e38" stroke="#3a414d" stroke-width="3"/>
  <rect x="122" y="120" width="170" height="22" rx="11" fill="#4ee58d"/>
  <rect x="122" y="170" width="360" height="24" rx="12" fill="#3a414d"/>
  <rect x="122" y="214" width="260" height="24" rx="12" fill="#3a414d"/>
  <circle cx="176" cy="314" r="44" fill="#20242c" stroke="#4ee58d" stroke-width="8"/>
  <path d="M176 270a44 44 0 0 1 39 64" fill="none" stroke="#f7f8f7" stroke-width="8" stroke-linecap="round"/>
  <path d="M300 338h158" stroke="#4ee58d" stroke-width="10" stroke-linecap="round"/>
  <path d="M300 296h118" stroke="#f2a65f" stroke-width="10" stroke-linecap="round"/>
  <path d="M300 380h92" stroke="#f7f8f7" stroke-width="10" stroke-linecap="round"/>
  <circle cx="604" cy="206" r="54" fill="#f7f8f7"/>
  <path d="M558 200c14-62 91-70 120-15 9 16 11 35 6 53-41 7-85-2-126-38z" fill="#20242c"/>
  <path d="M580 268h83c62 0 112 50 112 112v120H468V378c0-61 50-110 112-110z" fill="#f7f8f7"/>
  <path d="M560 292v208M685 292v208" stroke="#dce5e1" stroke-width="4"/>
  <path d="M602 278l23 48 24-48" fill="none" stroke="#4ee58d" stroke-width="7" stroke-linecap="round" stroke-linejoin="round"/>
  <circle cx="622" cy="405" r="54" fill="#292e38" stroke="#3a414d" stroke-width="4"/>
  <path d="M594 406h56M622 378v56" stroke="#4ee58d" stroke-width="8" stroke-linecap="round"/>
  <path d="M494 390c-54-19-100-40-138-77" stroke="#f7f8f7" stroke-width="18" stroke-linecap="round"/>
  <path d="M350 308l-38-37" stroke="#4ee58d" stroke-width="10" stroke-linecap="round"/>
  <circle cx="304" cy="262" r="18" fill="#4ee58d"/>
  <path d="M718 384l58-38" stroke="#f7f8f7" stroke-width="18" stroke-linecap="round"/>
  <path d="M779 345l46-30" stroke="#4ee58d" stroke-width="10" stroke-linecap="round"/>
</svg>
